<svg version="1.2" width="116.9mm" height="116.9mm" viewBox="0 0 11690 11690" preserveAspectRatio="xMidYMid" fill-rule="evenodd" stroke-width="28.222" stroke-linejoin="round" xmlns="http://www.w3.org/2000/svg"><defs class="ClipPathGroup"><clipPath id="a" clipPathUnits="userSpaceOnUse"><path d="M0 0h11690v11690H0z"/></clipPath></defs><g class="SlideGroup"><g class="Slide" clip-path="url(#a)"><g class="Page"><g class="com.sun.star.drawing.PolyPolygonShape"><path class="BoundingBox" fill="none" d="M21 1233h11670v9172H21z"/></g><g class="com.sun.star.drawing.ClosedBezierShape"><path class="BoundingBox" fill="none" d="M22 1235h11668v9169H22z"/><path fill="#CCC" d="M11384 1541c-205-203-451-305-737-305H1063c-287 0-531 102-736 305-203 205-305 451-305 737v7084c0 286 102 531 305 734 205 205 449 307 736 307h9585c285 0 531-102 736-307 202-203 305-448 305-734V2278c0-286-103-532-305-737zm-528 7821c0 55-21 104-63 146s-90 62-146 62H1063c-55 0-106-20-146-62-42-42-62-91-62-146V4361c139 156 288 299 448 430 1164 894 2088 1628 2775 2201 221 185 401 331 540 435 139 105 327 209 564 316 236 107 459 159 667 159h13c208 0 431-52 666-159 238-107 426-211 565-316 139-104 317-250 539-435 686-573 1612-1307 2774-2201 161-131 311-274 450-430v5001zm0-6915v71c0 255-101 542-303 857s-421 566-654 751c-838 660-1709 1348-2612 2065-24 22-102 86-227 191-126 106-226 189-299 244-74 58-171 126-290 206-120 80-230 140-329 179-100 40-193 58-280 58h-13c-87 0-180-18-281-58-100-39-209-99-328-179s-216-148-290-206c-73-55-173-138-299-244-126-105-203-169-227-191-905-717-1774-1405-2612-2065-638-504-957-1119-957-1849 0-56 20-104 62-145 40-42 91-63 146-63h9585c34 20 64 25 91 16 26-8 44 8 58 49 12 41 26 62 37 59 10-3 16 25 18 82 3 55 4 85 4 85v87z"/></g></g></g></g></svg>