<svg xmlns="http://www.w3.org/2000/svg" version="1.2" width="265.096" height="265.096" viewBox="0 0 7014 7014" preserveAspectRatio="xMidYMid" fill-rule="evenodd" stroke-width="28.222" stroke-linejoin="round"><defs class="ClipPathGroup"><clipPath id="a" clipPathUnits="userSpaceOnUse"><path d="M0 0h11750v7062H0z"/></clipPath></defs><g class="SlideGroup"><g class="Slide" clip-path="url(#a)" transform="translate(-22 -22)"><g class="Page"><g class="com.sun.star.drawing.CustomShape"><path class="BoundingBox" fill="none" d="M32.825 11.175h7014v7014h-7014z"/><path d="M768.825 117.175c-315 0-630 315-630 630v5540c0 315 315 631 630 631h5540c315 0 631-316 631-631v-5540c0-315-316-630-631-630zm-630 0zm6801 6801z" fill="#333"/><path d="M768.825 117.175c-315 0-630 315-630 630v5540c0 315 315 631 630 631h5540c315 0 631-316 631-631v-5540c0-315-316-630-631-630z" fill="none" stroke="#579835" stroke-width="212"/></g><g class="com.sun.star.drawing.PolyPolygonShape"><path class="BoundingBox" fill="none" d="M53.825 25.175h7v1198h-7z"/></g><path d="M1672.65 751.265l-1074.18 88.66 300.903 1227.873 192.49-329.552 2098.575 1318.206-1711.384-1975.636zm3734.35 0l1074.179 88.66-300.903 1227.873-192.49-329.552-2098.575 1318.207 1711.385-1975.637zM1672.65 6285.086l-1074.18-88.66 300.903-1227.873 192.49 329.552 2098.576-1318.207-1711.385 1975.637zm3734.35 0l1074.179-88.66-300.903-1227.873-192.489 329.552-2098.576-1318.207 1711.384 1975.637z" fill="#62a73b"/></g></g></g></svg>