<svg version="1.2" width="116.9mm" height="116.9mm" viewBox="0 0 11690 11690" preserveAspectRatio="xMidYMid" fill-rule="evenodd" stroke-width="28.222" stroke-linejoin="round" xmlns="http://www.w3.org/2000/svg"><defs class="ClipPathGroup"><clipPath id="a" clipPathUnits="userSpaceOnUse"><path d="M0 0h11690v11690H0z"/></clipPath></defs><g class="SlideGroup"><g class="Slide" clip-path="url(#a)"><g class="Page"><g class="com.sun.star.drawing.PolyPolygonShape"><path class="BoundingBox" fill="none" d="M0 0h11694v11694H0z"/></g><g class="com.sun.star.drawing.PolyPolygonShape"><path class="BoundingBox" fill="none" d="M176 176h11339v11339H176z"/></g><g class="com.sun.star.drawing.ClosedBezierShape"><path class="BoundingBox" fill="none" d="M93 220h11338v11338H93z"/><path fill="#333" d="M1143 220C618 220 93 745 93 1270v9236c0 525 525 1051 1050 1051h9236c525 0 1051-526 1051-1051V1270c0-525-526-1050-1051-1050H1143zM93 220zm11337 11337z"/></g><g class="com.sun.star.drawing.PolyPolygonShape"><path class="BoundingBox" fill="none" d="M-1-1h11694v11694H-1z"/></g><g class="com.sun.star.drawing.ClosedBezierShape"><path class="BoundingBox" fill="none" d="M-1-1h11692v11692H-1z"/><path fill="none" stroke="#579835" stroke-width="354" d="M1226 176C701 176 176 701 176 1226v9236c0 525 525 1051 1050 1051h9236c525 0 1051-526 1051-1051V1226c0-525-526-1050-1051-1050H1226z"/></g><g class="com.sun.star.drawing.PolyPolygonShape"><path class="BoundingBox" fill="none" d="M35 24h16v2002H35z"/></g><g class="com.sun.star.drawing.PolyPolygonShape"><path class="BoundingBox" fill="none" d="M440-196h11v1499h-11z"/></g><g class="com.sun.star.drawing.PolyPolygonShape"><path class="BoundingBox" fill="none" d="M3122 2850h6063v2809H3122z"/></g><g class="com.sun.star.drawing.PolyPolygonShape"><path class="BoundingBox" fill="none" d="M1504 4846h2097v2097H1504z"/></g><g class="com.sun.star.drawing.PolyPolygonShape"><path class="BoundingBox" fill="none" d="M8081 2075h2102v2099H8081z"/></g><g class="com.sun.star.drawing.PolyPolygonShape"><path class="BoundingBox" fill="none" d="M1598 1491h38v7180h-38z"/></g><g class="com.sun.star.drawing.PolyPolygonShape"><path class="BoundingBox" fill="none" d="M1340 1276h8961v9139H1340z"/></g><g class="com.sun.star.drawing.PolyPolygonShape"><path class="BoundingBox" fill="none" d="M1342 1276h8958v9138H1342z"/><path fill="#FFF" d="M1342 1277v9135h8957V1277H1342z"/></g><g class="com.sun.star.drawing.PolyPolygonShape"><path class="BoundingBox" fill="none" d="M1819 1727h2875v2948H1819z"/></g><g class="com.sun.star.drawing.PolyPolygonShape"><path class="BoundingBox" fill="none" d="M1874 1783h2763v2835H1874z"/><path fill="none" stroke="#000" stroke-width="471" stroke-linejoin="miter" d="M2110 2019h2290v2362H2110V2019z"/></g><g class="com.sun.star.drawing.PolyPolygonShape"><path class="BoundingBox" fill="none" d="M2965 2909h576v586h-576z"/></g><g class="com.sun.star.drawing.LineShape"><path class="BoundingBox" fill="none" d="M2967 2965h570v473h-570z"/><path fill="none" stroke="#000" stroke-width="471" stroke-linejoin="miter" d="M2968 3201h568"/></g><g class="com.sun.star.drawing.PolyPolygonShape"><path class="BoundingBox" fill="none" d="M5241 1727h1161v3539H5241z"/></g><g class="com.sun.star.drawing.PolyLineShape"><path class="BoundingBox" fill="none" d="M5296 1783h1101v3482H5296z"/><path fill="none" stroke="#000" stroke-width="471" stroke-linejoin="miter" d="M6396 2019h-864v1182h576v1175h-576v887"/></g><g class="com.sun.star.drawing.PolyPolygonShape"><path class="BoundingBox" fill="none" d="M1820 5259h7997v586H1820z"/></g><g class="com.sun.star.drawing.PolyLineShape"><path class="BoundingBox" fill="none" d="M1821 5315h7991v473H1821z"/><path fill="none" stroke="#000" stroke-width="471" stroke-linejoin="miter" d="M1822 5551h568m570 0h1145m1714 0h568m571 0h1145m1138 0h570"/></g><g class="com.sun.star.drawing.PolyPolygonShape"><path class="BoundingBox" fill="none" d="M2390 5846h7427v586H2390z"/></g><g class="com.sun.star.drawing.PolyLineShape"><path class="BoundingBox" fill="none" d="M2390 5901h7422v473H2390z"/><path fill="none" stroke="#000" stroke-width="471" stroke-linejoin="miter" d="M2391 6137h570m569 0h2283m1714 0h571m574 0h1139"/></g><g class="com.sun.star.drawing.PolyPolygonShape"><path class="BoundingBox" fill="none" d="M5249 6439h4005v586H5249z"/></g><g class="com.sun.star.drawing.PolyLineShape"><path class="BoundingBox" fill="none" d="M5249 6494h4000v473H5249z"/><path fill="none" stroke="#000" stroke-width="471" stroke-linejoin="miter" d="M5250 6730h570m569 0h575m1708 0h576"/></g><g class="com.sun.star.drawing.PolyPolygonShape"><path class="BoundingBox" fill="none" d="M5817 7026h3430v587H5817z"/></g><g class="com.sun.star.drawing.PolyLineShape"><path class="BoundingBox" fill="none" d="M5819 7082h3424v473H5819z"/><path fill="none" stroke="#000" stroke-width="471" stroke-linejoin="miter" d="M5819 7318h568m571 0h2283"/></g><g class="com.sun.star.drawing.PolyPolygonShape"><path class="BoundingBox" fill="none" d="M5249 7613h4573v586H5249z"/></g><g class="com.sun.star.drawing.PolyLineShape"><path class="BoundingBox" fill="none" d="M5249 7668h4571v473H5249z"/><path fill="none" stroke="#000" stroke-width="471" stroke-linejoin="miter" d="M5250 7904h570m569 0h575m1140 0h568m576 0h570"/></g><g class="com.sun.star.drawing.PolyPolygonShape"><path class="BoundingBox" fill="none" d="M5249 8202h4005v586H5249z"/></g><g class="com.sun.star.drawing.PolyLineShape"><path class="BoundingBox" fill="none" d="M5249 8257h4000v473H5249z"/><path fill="none" stroke="#000" stroke-width="471" stroke-linejoin="miter" d="M5250 8493h1139m575 0h569m571 0h1144"/></g><g class="com.sun.star.drawing.PolyPolygonShape"><path class="BoundingBox" fill="none" d="M5249 8789h4573v586H5249z"/></g><g class="com.sun.star.drawing.PolyLineShape"><path class="BoundingBox" fill="none" d="M5249 8844h4571v473H5249z"/><path fill="none" stroke="#000" stroke-width="471" stroke-linejoin="miter" d="M5250 9080h570m1713 0h571m1144 0h570"/></g><g class="com.sun.star.drawing.PolyPolygonShape"><path class="BoundingBox" fill="none" d="M5817 9376h3430v587H5817z"/></g><g class="com.sun.star.drawing.PolyLineShape"><path class="BoundingBox" fill="none" d="M5819 9432h3424v473H5819z"/><path fill="none" stroke="#000" stroke-width="471" stroke-linejoin="miter" d="M5819 9668h2284m569 0h569"/></g><g class="com.sun.star.drawing.PolyPolygonShape"><path class="BoundingBox" fill="none" d="M6955 1727h2876v2948H6955z"/></g><g class="com.sun.star.drawing.PolyPolygonShape"><path class="BoundingBox" fill="none" d="M7010 1783h2763v2835H7010z"/><path fill="none" stroke="#000" stroke-width="471" stroke-linejoin="miter" d="M7246 2019h2290v2362H7246V2019z"/></g><g class="com.sun.star.drawing.PolyPolygonShape"><path class="BoundingBox" fill="none" d="M8101 2909h576v586h-576z"/></g><g class="com.sun.star.drawing.LineShape"><path class="BoundingBox" fill="none" d="M8103 2965h571v473h-571z"/><path fill="none" stroke="#000" stroke-width="471" stroke-linejoin="miter" d="M8104 3201h568"/></g><g class="com.sun.star.drawing.PolyPolygonShape"><path class="BoundingBox" fill="none" d="M1819 7026h2875v2948H1819z"/></g><g class="com.sun.star.drawing.PolyPolygonShape"><path class="BoundingBox" fill="none" d="M1874 7082h2763v2835H1874z"/><path fill="none" stroke="#000" stroke-width="471" stroke-linejoin="miter" d="M2110 7318h2290v2362H2110V7318z"/></g><g class="com.sun.star.drawing.PolyPolygonShape"><path class="BoundingBox" fill="none" d="M2965 8202h576v586h-576z"/></g><g class="com.sun.star.drawing.LineShape"><path class="BoundingBox" fill="none" d="M2967 8257h570v473h-570z"/><path fill="none" stroke="#000" stroke-width="471" stroke-linejoin="miter" d="M2968 8493h568"/></g></g></g></g></svg>