<svg version="1.2" width="116.9mm" height="116.9mm" viewBox="0 0 11690 11690" preserveAspectRatio="xMidYMid" fill-rule="evenodd" stroke-width="28.222" stroke-linejoin="round" xmlns="http://www.w3.org/2000/svg"><defs class="ClipPathGroup"><clipPath id="a" clipPathUnits="userSpaceOnUse"><path d="M0 0h11690v11690H0z"/></clipPath></defs><g class="SlideGroup"><g class="Slide" clip-path="url(#a)"><g class="Page"><g class="com.sun.star.drawing.PolyPolygonShape"><path class="BoundingBox" fill="none" d="M1 1h11691v11691H1z"/></g><g class="com.sun.star.drawing.ClosedBezierShape"><path class="BoundingBox" fill="none" d="M1 1h11689v11689H1z"/><path fill="#7AA5DA" d="M11689 5844c0 1077-246 1992-783 2922-538 932-1208 1602-2140 2140-930 537-1845 783-2922 783-1076 0-1990-246-2921-783-932-538-1601-1208-2139-2140C246 7836 1 6921 1 5844c0-1076 245-1990 783-2921 538-932 1207-1601 2139-2139C3854 246 4768 1 5844 1c1077 0 1992 245 2922 783 932 538 1602 1207 2140 2139 537 931 783 1845 783 2921z"/></g><g class="com.sun.star.drawing.PolyPolygonShape"><path class="BoundingBox" fill="none" d="M4866 3119h6825v8198H4866z"/></g><g class="com.sun.star.drawing.ClosedBezierShape"><path class="BoundingBox" fill="none" d="M4867 3119h6823v8195H4867z"/><path fill="#5786B5" d="M11688 5710L9093 3119 4868 8270l3042 3042c2208-834 3779-2966 3779-5468 0-44-1-90-1-134z"/></g><g class="com.sun.star.drawing.PolyPolygonShape"><path class="BoundingBox" fill="none" d="M2499 3026h6696v5644H2499z"/></g><g class="com.sun.star.drawing.ClosedBezierShape"><path class="BoundingBox" fill="none" d="M2499 3026h6693v5639H2499z"/><path fill="#FFF" d="M8762 3049c232-91 472 114 422 357L8139 8401c-48 235-324 341-516 199L6045 7442l-804 821c-141 144-385 85-444-107l-581-1842-1556-458c-204-60-216-345-18-423l6120-2384zm-767 1108c68-60-11-166-89-118L4550 6121c-60 36-86 108-65 175l458 2009c8 30 53 27 57-5l102-1531c4-39 22-73 50-99l2843-2513z"/></g><g class="com.sun.star.drawing.PolyPolygonShape"><path class="BoundingBox" fill="none" d="M4475 4026h3549v4305H4475z"/></g><g class="com.sun.star.drawing.ClosedBezierShape"><path class="BoundingBox" fill="none" d="M4477 4026h3545v4302H4477z"/><path fill="#9EC2E5" d="M7907 4038c76-48 156 59 88 120L5153 6670c-29 26-47 61-52 98l-102 1532c-4 32-48 36-57 5l-458-2009c-20-66 6-139 65-176l3358-2082z"/></g><g class="com.sun.star.drawing.PolyPolygonShape"><path class="BoundingBox" fill="none" d="M2499 3026h6647v5304H2499z"/></g><g class="com.sun.star.drawing.ClosedBezierShape"><path class="BoundingBox" fill="none" d="M2499 3026h6644v5301H2499z"/><path fill="#FFF" d="M4959 8326c-74-27-136-85-162-171l-581-1841-1556-459c-204-61-216-345-18-423l6120-2383c150-59 304 5 380 123-15-21-31-41-50-58L4941 6502v149l-24-17 24 935v749c6 3 12 6 18 7v1z"/></g><g class="com.sun.star.drawing.PolyPolygonShape"><path class="BoundingBox" fill="none" d="M4937 3113h4256v5554H4937z"/></g><g class="com.sun.star.drawing.ClosedBezierShape"><path class="BoundingBox" fill="none" d="M4938 3114h4254v5551H4938z"/><path fill="#D1D1D1" d="M9190 3322c1 27-1 57-6 84L8139 8401c-50 235-325 340-517 198L6043 7441l-1104-789v-150l4152-3388c19 17 35 37 50 59 2 5 5 9 7 14 4 5 6 8 9 12 2 6 3 11 6 15 3 6 5 10 7 15 1 6 3 9 4 14 5 15 10 31 12 48 1 10 3 20 4 31z"/></g><g class="com.sun.star.drawing.PolyPolygonShape"><path class="BoundingBox" fill="none" d="M4937 6649h1112v1696H4937z"/></g><g class="com.sun.star.drawing.ClosedBezierShape"><path class="BoundingBox" fill="none" d="M4938 6649h1108v1695H4938z"/><path fill="#D1D1D1" d="M6045 7441l-805 821c-8 7-14 14-21 19-7 7-14 11-21 16l-2 1c-14 10-29 18-45 24-9 4-16 7-25 8-35 11-70 14-104 11-9-1-18-3-27-4-2 0-3 0-4-1-8-3-16-6-25-9-3 0-6-1-8-2l-19-756v-919l1106 791z"/></g><g class="com.sun.star.drawing.PolyPolygonShape"><path class="BoundingBox" fill="none" d="M5197 8280h28v21h-28z"/></g><g class="com.sun.star.drawing.ClosedBezierShape"><path class="BoundingBox" fill="none" d="M5198 8280h24v20h-24z"/><path fill="#DADDE0" d="M5221 8280c-8 8-15 13-23 18v-1c8-5 15-9 23-17z"/></g><g class="com.sun.star.drawing.PolyPolygonShape"><path class="BoundingBox" fill="none" d="M5197 8296h6v6h-6z"/></g><g class="com.sun.star.drawing.ClosedBezierShape"><path class="BoundingBox" fill="none" d="M5197 8296h5v5h-5z"/><path fill="#DADDE0" d="M5200 8296v4s0-4-3 0l3-4z"/></g><g class="com.sun.star.drawing.PolyPolygonShape"><path class="BoundingBox" fill="none" d="M5150 8296h52v31h-52z"/></g><g class="com.sun.star.drawing.ClosedBezierShape"><path class="BoundingBox" fill="none" d="M5150 8296h50v29h-50z"/><path fill="#DADDE0" d="M5150 8323c18-7 33-16 48-27-15 11-32 20-48 27z"/></g><g class="com.sun.star.drawing.PolyPolygonShape"><path class="BoundingBox" fill="none" d="M5022 8329h109v18h-109z"/></g><g class="com.sun.star.drawing.ClosedBezierShape"><path class="BoundingBox" fill="none" d="M5022 8329h107v15h-107z"/><path fill="#DADDE0" d="M5022 8341c35 3 71 0 106-12-25 9-51 13-77 13-9 0-17 0-24-1h-5z"/></g><g class="com.sun.star.drawing.PolyPolygonShape"><path class="BoundingBox" fill="none" d="M5026 8339h30v8h-30z"/></g><g class="com.sun.star.drawing.ClosedBezierShape"><path class="BoundingBox" fill="none" d="M5027 8340h25v5h-25z"/><path fill="#FFF" d="M5051 8343c-9 0-16 0-24-3 8 3 15 3 24 3z"/></g><g class="com.sun.star.drawing.PolyPolygonShape"><path class="BoundingBox" fill="none" d="M5002 8335h30v10h-30z"/></g><g class="com.sun.star.drawing.ClosedBezierShape"><path class="BoundingBox" fill="none" d="M5002 8336h28v7h-28z"/><path fill="#FFF" d="M5022 8341h7c-9 0-18-2-26-4 7 2 14 2 19 4z"/></g><g class="com.sun.star.drawing.PolyPolygonShape"><path class="BoundingBox" fill="none" d="M4995 8334h33v10h-33z"/></g><g class="com.sun.star.drawing.ClosedBezierShape"><path class="BoundingBox" fill="none" d="M4995 8335h30v8h-30z"/><path fill="#DADDE0" d="M5023 8341c-5 0-13-2-19-3-3 0-5-2-9-2 10 2 19 3 28 5z"/></g><g class="com.sun.star.drawing.PolyPolygonShape"><path class="BoundingBox" fill="none" d="M4964 8326h33v13h-33z"/></g><g class="com.sun.star.drawing.ClosedBezierShape"><path class="BoundingBox" fill="none" d="M4965 8326h30v10h-30z"/><path fill="#DADDE0" d="M4966 8326c9 3 18 7 27 9-4 0-8-1-10-2-2 0-5 0-7-3-2-1-6-3-10-4z"/></g><g class="com.sun.star.drawing.PolyPolygonShape"><path class="BoundingBox" fill="none" d="M4980 8331h16v8h-16z"/></g><g class="com.sun.star.drawing.ClosedBezierShape"><path class="BoundingBox" fill="none" d="M4980 8331h15v6h-15z"/><path fill="#FFF" d="M4981 8332c4 2 8 4 12 4-4 0-8-2-12-4z"/></g><g class="com.sun.star.drawing.PolyPolygonShape"><path class="BoundingBox" fill="none" d="M4958 8324h24v12h-24z"/></g><g class="com.sun.star.drawing.ClosedBezierShape"><path class="BoundingBox" fill="none" d="M4959 8325h21v8h-21z"/><path fill="#FFF" d="M4967 8327c4 3 8 3 11 5-6-2-11-4-19-7 3 0 4 2 8 2z"/></g><g class="com.sun.star.drawing.PolyPolygonShape"><path class="BoundingBox" fill="none" d="M4957 8323h14v9h-14z"/></g><g class="com.sun.star.drawing.ClosedBezierShape"><path class="BoundingBox" fill="none" d="M4958 8324h10v6h-10z"/><path fill="#DADDE0" d="M4967 8328c-2 0-5-2-8-2 0 0-1 0-1-2 3 2 7 4 9 4z"/></g><g class="com.sun.star.drawing.PolyPolygonShape"><path class="BoundingBox" fill="none" d="M4937 7566h26v764h-26z"/></g><g class="com.sun.star.drawing.ClosedBezierShape"><path class="BoundingBox" fill="none" d="M4938 7566h22v761h-22z"/><path fill="#D1D1D1" d="M4939 7567l19 758c-6-3-12-4-19-6v-752z"/></g><g class="com.sun.star.drawing.PolyPolygonShape"><path class="BoundingBox" fill="none" d="M4915 6632h30v941h-30z"/></g><g class="com.sun.star.drawing.PolyPolygonShape"><path class="BoundingBox" fill="none" d="M4916 6633h26v937h-26z"/><path fill="#DADDE0" d="M4940 6650v919l-23-935 23 16z"/></g><g class="com.sun.star.drawing.PolyPolygonShape"><path class="BoundingBox" fill="none" d="M4475 4026h3549v4305H4475z"/></g><g class="com.sun.star.drawing.ClosedBezierShape"><path class="BoundingBox" fill="none" d="M4477 4026h3545v4302H4477z"/><path fill="#ADBCC9" d="M7995 4158L5153 6670c-29 26-47 61-52 98l-102 1532c-4 32-48 36-58 5l-457-2009c-20-66 6-139 65-176l3358-2082c76-48 156 59 88 120z"/></g></g></g></g></svg>