<svg version="1.2" width="116.9mm" height="116.9mm" viewBox="0 0 11690 11690" preserveAspectRatio="xMidYMid" fill-rule="evenodd" stroke-width="28.222" stroke-linejoin="round" xmlns="http://www.w3.org/2000/svg"><defs class="ClipPathGroup"><clipPath id="a" clipPathUnits="userSpaceOnUse"><path d="M0 0h11690v11690H0z"/></clipPath></defs><g class="SlideGroup"><g class="Slide" clip-path="url(#a)"><g class="Page"><g class="com.sun.star.drawing.PolyPolygonShape"><path class="BoundingBox" fill="none" d="M69 49h11541v11592H69z"/></g><g class="com.sun.star.drawing.ClosedBezierShape"><path class="BoundingBox" fill="none" d="M68 50h11541v11590H68z"/><path fill="#E5E5E5" d="M315 11639c-65 0-128-26-174-75-62-62-86-152-64-237l754-2751c-469-848-716-1807-716-2781C116 2628 2694 51 5861 51c1536 0 2980 598 4065 1683 1084 1087 1681 2530 1681 4065-2 3168-2579 5745-5746 5745h-3c-925 0-1842-227-2658-653l-2822 739c-21 5-41 9-63 9zm0 0z"/></g><g class="com.sun.star.drawing.PolyPolygonShape"><path class="BoundingBox" fill="none" d="M506 488h10665v10717H506z"/></g><g class="com.sun.star.drawing.ClosedBezierShape"><path class="BoundingBox" fill="none" d="M506 489h10664v10713H506z"/><path fill="#64B161" d="M506 11200l754-2749c-464-807-709-1719-709-2654 1-2927 2382-5307 5309-5307 1420 0 2753 553 3754 1557 1002 1003 1555 2337 1555 3753-2 2927-2383 5308-5309 5308h-2c-889 0-1763-223-2537-645l-2815 737zm0 0z"/></g><g class="com.sun.star.drawing.PolyPolygonShape"><path class="BoundingBox" fill="none" d="M313 296h11049v11099H313z"/></g><g class="com.sun.star.drawing.ClosedBezierShape"><path class="BoundingBox" fill="none" d="M316 296h11045v11096H316z"/><path fill="#FFF" d="M316 11390l780-2847c-483-833-735-1780-734-2748 0-3032 2468-5498 5498-5498 1473 1 2852 573 3890 1613 1038 1037 1610 2420 1610 3889-1 3030-2468 5496-5500 5496h-2c-920 0-1825-230-2627-668l-2915 763zm3050-1758l168 98c701 417 1505 636 2325 637h1c2519 0 4571-2050 4572-4568 0-1222-475-2370-1337-3234-865-862-2012-1339-3233-1341-2519 0-4570 2051-4572 4571 0 864 242 1704 699 2432l109 173-463 1686 1731-454zm0 0z"/></g><g class="com.sun.star.drawing.PolyPolygonShape"><path class="BoundingBox" fill="none" d="M3065 3255h5590v5185H3065z"/></g><g class="com.sun.star.drawing.ClosedBezierShape"><path class="BoundingBox" fill="none" d="M3066 3255h5587v5184H3066z"/><path fill="#FFF" d="M4486 3496c-103-228-211-233-309-237-81-3-172-3-263-3-92 0-241 35-367 172-125 139-481 470-481 1146s492 1330 560 1422c70 92 953 1523 2349 2074 1160 458 1397 368 1649 343 252-22 812-332 927-652 115-322 115-597 80-655-34-57-126-90-263-158-136-71-813-402-939-448-125-46-217-68-309 69-93 137-355 447-435 537-81 93-161 104-297 36-138-69-580-215-1106-682-408-366-684-815-764-952-81-137-2-206 60-280 112-135 297-379 343-470s22-173-11-241c-35-69-302-748-424-1021zm0 0z"/></g></g></g></g></svg>