<svg version="1.2" width="116.9mm" height="116.9mm" viewBox="0 0 11690 11690" preserveAspectRatio="xMidYMid" fill-rule="evenodd" stroke-width="28.222" stroke-linejoin="round" xmlns="http://www.w3.org/2000/svg"><defs class="ClipPathGroup"><clipPath id="a" clipPathUnits="userSpaceOnUse"><path d="M0 0h11690v11690H0z"/></clipPath></defs><g class="SlideGroup"><g class="Slide" clip-path="url(#a)"><g class="Page"><g class="com.sun.star.drawing.PolyPolygonShape"><path class="BoundingBox" fill="none" d="M0 11h11691v11692H0z"/></g><g class="com.sun.star.drawing.PolyPolygonShape"><path class="BoundingBox" fill="none" d="M177 187h11337v11338H177z"/></g><g class="com.sun.star.drawing.ClosedBezierShape"><path class="BoundingBox" fill="none" d="M177 187h11335v11336H177z"/><path fill="#333" d="M1227 188C703 188 177 714 177 1238v9232c0 526 526 1052 1050 1052h9232c526 0 1052-526 1052-1052V1238c0-524-526-1050-1052-1050H1227zm-1050 0zm11334 11334z"/></g><g class="com.sun.star.drawing.PolyPolygonShape"><path class="BoundingBox" fill="none" d="M0 10h11691v11692H0z"/></g><g class="com.sun.star.drawing.ClosedBezierShape"><path class="BoundingBox" fill="none" d="M11 22h11667v11667H11z"/><path fill="none" stroke="#579835" stroke-width="331" d="M1227 188C703 188 177 714 177 1238v9232c0 526 526 1052 1050 1052h9232c526 0 1052-526 1052-1052V1238c0-524-526-1050-1052-1050H1227z"/></g><g class="com.sun.star.drawing.PolyPolygonShape"><path class="BoundingBox" fill="none" d="M1424 1470h8686v8690H1424z"/></g><g class="com.sun.star.drawing.PolyPolygonShape"><path class="BoundingBox" fill="none" d="M1426 1472h8689v8686H1426z"/></g><g class="com.sun.star.drawing.PolyPolygonShape"><path class="BoundingBox" fill="none" d="M2485 2487h6721v6720H2485z"/></g><g class="com.sun.star.drawing.ClosedBezierShape"><path class="BoundingBox" fill="none" d="M2486 2488h6718v6717H2486z"/><path fill="#62A73B" d="M2698 8994l102 101c146 145 384 145 530 0l5762-5764c147-146 147-384 0-530l-201-202c-147-148-384-148-531 0L2598 8361c-148 147-148 384 0 532l100 101z"/></g><g class="com.sun.star.drawing.PolyPolygonShape"><path class="BoundingBox" fill="none" d="M2485 2506h6721v6720H2485z"/></g><g class="com.sun.star.drawing.ClosedBezierShape"><path class="BoundingBox" fill="none" d="M2486 2507h6718v6717H2486z"/><path fill="#62A73B" d="M8992 9013l-101 100c-147 146-384 146-531 0L2598 3350c-148-146-148-384 0-530l202-201c146-149 384-149 530 0l5762 5761c147 148 147 384 0 533l-100 100z"/></g></g></g></g></svg>