<svg version="1.2" width="93.52mm" height="93.52mm" viewBox="0 0 9352 9352" preserveAspectRatio="xMidYMid" fill-rule="evenodd" stroke-width="28.222" stroke-linejoin="round" xmlns="http://www.w3.org/2000/svg"><defs class="ClipPathGroup"><clipPath id="a" clipPathUnits="userSpaceOnUse"><path d="M0 0h9352v9352H0z"/></clipPath></defs><g class="SlideGroup"><g class="Slide" clip-path="url(#a)"><g class="Page"><g class="Group"><g class="com.sun.star.drawing.ClosedBezierShape"><path class="BoundingBox" fill="none" d="M29 29h9302v9302H29z"/><path fill="#3C5A99" d="M8817 9330c283 0 513-230 513-513V542c0-283-230-513-513-513H542C259 29 29 259 29 542v8275c0 283 230 513 513 513h8275z"/></g><g class="com.sun.star.drawing.ClosedBezierShape"><path class="BoundingBox" fill="none" d="M3783 1433h4103v7898H3783z"/><path fill="#FFF" d="M6445 9330V5727h1210l181-1403H6445v-896c0-406 114-683 697-683l743-1V1489c-128-18-570-56-1084-56-1072 0-1805 655-1805 1856v1035H3784v1403h1212v3603h1449z"/></g></g></g></g></g></svg>