<svg version="1.2" width="116.9mm" height="116.9mm" viewBox="0 0 11690 11690" preserveAspectRatio="xMidYMid" fill-rule="evenodd" stroke-width="28.222" stroke-linejoin="round" xmlns="http://www.w3.org/2000/svg"><defs class="ClipPathGroup"><clipPath id="a" clipPathUnits="userSpaceOnUse"><path d="M0 0h11690v11690H0z"/></clipPath></defs><g class="SlideGroup"><g class="Slide" clip-path="url(#a)"><g class="Page"><g class="com.sun.star.drawing.PolyPolygonShape"><path class="BoundingBox" fill="none" d="M1 1h11691v11691H1z"/></g><g class="com.sun.star.drawing.ClosedBezierShape"><path class="BoundingBox" fill="none" d="M1 1h11689v11689H1z"/><path fill="#0077B7" d="M10631 1H1058C475 1 1 475 1 1058v9573c0 584 474 1058 1057 1058h9573c584 0 1058-474 1058-1058V1058c0-583-474-1057-1058-1057zM3619 10092c0 171-139 309-309 309H2001c-171 0-309-138-309-309V4603c0-171 138-307 309-307h1309c170 0 309 136 309 307v5489zm-963-6316c-688 0-1244-555-1244-1243 0-687 556-1244 1244-1244 686 0 1243 557 1243 1244 0 688-557 1243-1243 1243zm7805 6342c0 156-125 283-282 283H8774c-157 0-282-127-282-283V7542c0-384 112-1683-1005-1683-866 0-1042 890-1077 1289v2970c0 156-126 283-283 283H4767c-155 0-282-127-282-283V4578c0-156 127-282 282-282h1360c157 0 283 126 283 282v478c322-482 799-853 1815-853 2250 0 2236 2102 2236 3257v2658z"/></g><g class="com.sun.star.drawing.PolyPolygonShape"><path class="BoundingBox" fill="none" d="M1410 1289h9057v9115H1410z"/></g><g class="com.sun.star.drawing.ClosedBezierShape"><path class="BoundingBox" fill="none" d="M1411 1289h9053v9113H1411z"/><path fill="#FFF" d="M3619 10093c0 171-139 308-309 308H2002c-171 0-308-137-308-308V4604c0-171 137-308 308-308h1308c170 0 309 137 309 308v5489zm-963-6315c-688 0-1244-557-1244-1245 0-686 556-1244 1244-1244 686 0 1244 558 1244 1244 0 688-558 1245-1244 1245zm7806 6340c0 157-126 283-282 283H8774c-156 0-282-126-282-283V7542c0-384 112-1682-1004-1682-867 0-1043 889-1077 1288v2970c0 157-127 283-283 283H4768c-156 0-282-126-282-283V4578c0-155 126-282 282-282h1360c156 0 283 127 283 282v479c321-483 799-853 1814-853 2251 0 2237 2101 2237 3257v2657z"/></g></g></g></g></svg>