<svg version="1.2" width="116.9mm" height="116.9mm" viewBox="0 0 11690 11690" preserveAspectRatio="xMidYMid" fill-rule="evenodd" stroke-width="28.222" stroke-linejoin="round" xmlns="http://www.w3.org/2000/svg"><defs class="ClipPathGroup"><clipPath id="a" clipPathUnits="userSpaceOnUse"><path d="M0 0h11690v11690H0z"/></clipPath></defs><g class="SlideGroup"><g class="Slide" clip-path="url(#a)"><g class="Page"><g class="com.sun.star.drawing.PolyPolygonShape"><path class="BoundingBox" fill="none" d="M0 0h11694v11694H0z"/></g><g class="com.sun.star.drawing.PolyPolygonShape"><path class="BoundingBox" fill="none" d="M176 176h11339v11339H176z"/></g><g class="com.sun.star.drawing.ClosedBezierShape"><path class="BoundingBox" fill="none" d="M93 220h11338v11338H93z"/><path fill="#FFF" d="M1143 220C618 220 93 745 93 1270v9236c0 525 525 1051 1050 1051h9236c525 0 1051-526 1051-1051V1270c0-525-526-1050-1051-1050H1143zM93 220zm11337 11337z"/></g><g class="com.sun.star.drawing.PolyPolygonShape"><path class="BoundingBox" fill="none" d="M-1-1h11694v11694H-1z"/></g><g class="com.sun.star.drawing.ClosedBezierShape"><path class="BoundingBox" fill="none" d="M-1-1h11692v11692H-1z"/><path fill="none" stroke="#579835" stroke-width="354" d="M1226 176C701 176 176 701 176 1226v9236c0 525 525 1051 1050 1051h9236c525 0 1051-526 1051-1051V1226c0-525-526-1050-1051-1050H1226z"/></g><g class="com.sun.star.drawing.PolyPolygonShape"><path class="BoundingBox" fill="none" d="M35 24h16v2002H35z"/></g><g class="com.sun.star.drawing.PolyPolygonShape"><path class="BoundingBox" fill="none" d="M440-196h11v1499h-11z"/></g><g class="com.sun.star.drawing.PolyPolygonShape"><path class="BoundingBox" fill="none" d="M145 743h10021v9674H145z"/></g><g class="com.sun.star.drawing.ClosedBezierShape"><path class="BoundingBox" fill="none" d="M150 743h10004v9664H150z"/><path fill="#62A73B" d="M5985 2247c762-441 1921-792 2754-401-1611-777-335-183-1859-873-1118-229-3370 594-4696 3354-1338 3035-123 5205 848 5641 981 437 3502 36 5011-3023 798-1769 315-2959-1001-3086 341 1327-92 2053-193 2318-240 589-1327 2266-2750 1602-355-134-1163-718-605-2461 316-915 1185-2327 2491-3071zM150 8626zm9997-6144zM150 744zm10003 9661z"/></g><g class="com.sun.star.drawing.PolyPolygonShape"><path class="BoundingBox" fill="none" d="M1558 1378h10020v9673H1558z"/></g><g class="com.sun.star.drawing.ClosedBezierShape"><path class="BoundingBox" fill="none" d="M1558 1378h10010v9663H1558z"/><path fill="#595959" d="M5731 9536c-763 442-1921 798-2755 397 1607 777 331 187 1860 879 1119 228 3365-590 4696-3350 1337-3035 122-5205-849-5647-981-437-3501-36-5015 3019-794 1779-315 2963 1005 3085-339-1326 87-2048 193-2307 240-590 1327-2278 2750-1606 357 126 1159 716 605 2459-315 911-1183 2329-2490 3071zm5835-6379zM1558 9297zm0-7919zm10008 9662z"/></g></g></g></g></svg>