<svg version="1.2" width="93.52mm" height="93.52mm" viewBox="0 0 9352 9352" preserveAspectRatio="xMidYMid" fill-rule="evenodd" stroke-width="28.222" stroke-linejoin="round" xmlns="http://www.w3.org/2000/svg"><defs class="ClipPathGroup"><clipPath id="a" clipPathUnits="userSpaceOnUse"><path d="M0 0h9352v9352H0z"/></clipPath></defs><g class="SlideGroup"><g class="Slide" clip-path="url(#a)"><g class="Page"><g class="com.sun.star.drawing.PolyPolygonShape"><path class="BoundingBox" fill="none" d="M0 0h9354v9354H0z"/></g><g class="com.sun.star.drawing.ClosedBezierShape"><path class="BoundingBox" fill="none" d="M141 141h9070v9070H141z"/><path fill="#333" d="M981 141c-420 0-840 420-840 840v7388c0 420 420 841 840 841h7388c420 0 841-421 841-841V981c0-420-421-840-841-840H981zm-840 0zm9069 9069z"/></g><g class="com.sun.star.drawing.ClosedBezierShape"><path class="BoundingBox" fill="none" d="M-1-1h9354v9354H-1z"/><path fill="none" stroke="#579835" stroke-width="283" d="M981 141c-420 0-840 420-840 840v7388c0 420 420 841 840 841h7388c420 0 841-421 841-841V981c0-420-421-840-841-840H981z"/></g><g class="com.sun.star.drawing.PolyPolygonShape"><path class="BoundingBox" fill="none" d="M28 19h11v1600H28z"/></g><g class="com.sun.star.drawing.PolyPolygonShape"><path class="BoundingBox" fill="none" d="M2469 2248h4919v2279H2469z"/></g><g class="com.sun.star.drawing.PolyPolygonShape"><path class="BoundingBox" fill="none" d="M1155 3867h1702v1702H1155z"/></g><g class="com.sun.star.drawing.PolyPolygonShape"><path class="BoundingBox" fill="none" d="M1156 3867h1699v1700H1156z"/></g><g class="com.sun.star.drawing.PolyPolygonShape"><path class="BoundingBox" fill="none" d="M6495 1619h1703v1703H6495z"/></g><g class="com.sun.star.drawing.PolyPolygonShape"><path class="BoundingBox" fill="none" d="M2336 1868h4918v2883H2336z"/></g><g class="com.sun.star.drawing.PolyPolygonShape"><path class="BoundingBox" fill="none" d="M6360 1219h1700v1699H6360z"/></g><g class="com.sun.star.drawing.PolyPolygonShape"><path class="BoundingBox" fill="none" d="M2336 4552h4919v2882H2336z"/></g><g class="com.sun.star.drawing.PolyPolygonShape"><path class="BoundingBox" fill="none" d="M6362 6384h1700v1702H6362z"/></g><g class="Group"><g class="com.sun.star.drawing.ClosedBezierShape"><path class="BoundingBox" fill="none" d="M1824 4028h1403v1404H1824z"/><path fill="#62A73B" d="M2524 4029c398 0 701 303 701 699 0 398-303 702-701 702-397 0-700-304-700-702 0-396 303-699 700-699zm-700 0zm1402 1401z"/></g><g class="com.sun.star.drawing.PolyPolygonShape"><path class="BoundingBox" fill="none" d="M2798 2377h4062v2381H2798z"/><path fill="#62A73B" d="M4922 3725L2987 4756l-188-316 3871-2062 189 318-1937 1029z"/></g><g class="com.sun.star.drawing.ClosedBezierShape"><path class="BoundingBox" fill="none" d="M6122 1841h1404v1403H6122z"/><path fill="#62A73B" d="M6822 1841c398 0 702 303 702 700 0 398-304 701-702 701-396 0-699-303-699-701 0-397 303-700 699-700zm-699 0zm1401 1402z"/></g><g class="com.sun.star.drawing.PolyPolygonShape"><path class="BoundingBox" fill="none" d="M2799 4593h4062v2381H2799z"/><path fill="#62A73B" d="M4923 5624L2988 4594l-189 316 3872 2062 189-318-1937-1030z"/></g><g class="com.sun.star.drawing.ClosedBezierShape"><path class="BoundingBox" fill="none" d="M6124 6107h1404v1404H6124z"/><path fill="#62A73B" d="M6824 7509c398 0 701-303 701-699 0-398-303-702-701-702-396 0-700 304-700 702 0 396 304 699 700 699zm-700 0zm1402-1401z"/></g></g></g></g></g></svg>