<svg version="1.2" width="116.9mm" height="116.9mm" viewBox="0 0 11690 11690" preserveAspectRatio="xMidYMid" fill-rule="evenodd" stroke-width="28.222" stroke-linejoin="round" xmlns="http://www.w3.org/2000/svg"><defs class="ClipPathGroup"><clipPath id="a" clipPathUnits="userSpaceOnUse"><path d="M0 0h11690v11690H0z"/></clipPath></defs><g class="SlideGroup"><g class="Slide" clip-path="url(#a)"><g class="Page"><g class="com.sun.star.drawing.PolyPolygonShape"><path class="BoundingBox" fill="none" d="M0 1279h11709v9517H0z"/></g><g class="com.sun.star.drawing.ClosedBezierShape"><path class="BoundingBox" fill="none" d="M0 1280h11708v9515H0z"/><path fill="#1DA1F2" d="M3683 10794c4417 0 6832-3660 6832-6834 0-104-2-207-6-311 469-338 876-761 1198-1244-430 193-895 322-1380 380 495-297 876-768 1057-1329-464 275-979 475-1526 583-439-467-1063-759-1753-759-1326 0-2402 1076-2402 2402 0 188 22 372 62 548-1995-101-3766-1057-4949-2510-207 355-326 768-326 1207 0 834 424 1569 1069 1999-393-12-764-119-1087-301-1 11-1 20-1 31 0 1163 828 2134 1926 2354-202 55-414 85-633 85-155 0-306-15-451-43 306 953 1193 1649 2244 1667-824 646-1859 1028-2983 1028-193 0-386-10-574-32 1064 681 2326 1079 3683 1079z"/></g></g></g></g></svg>